# xmcd
#
# Track frame offsets: 
#        150
#        15838
#        30519
#        36671
#        45741
#        55974
#        67636
#        77134
#        89174
#        98353
#
# Disc length: 1488 seconds
#
# Revision: 2
# Processed by: cddbd v1.5.2PL0 Copyright (c) Steve Scherf et al.
# Submitted via: ExactAudioCopy v1.3
#
DISCID=7105ce0a
DTITLE=Red Sovine - CD2_Phantom 309 (1967)
DYEAR=2004
DGENRE=Country
TTITLE0=Phantom 309
TTITLE1=Bringing Mary Home
TTITLE2=Wildcat Run
TTITLE3=Lonely Arms of Mine
TTITLE4=1460 Elder Street
TTITLE5=Hitch Hiking Girl
TTITLE6=Ten Days Out And Two Days In
TTITLE7=Old Pipeliner
TTITLE8=Big Ben Dorsey The Third
TTITLE9=Sad Violins
EXTD=
EXTT0=
EXTT1=
EXTT2=
EXTT3=
EXTT4=
EXTT5=
EXTT6=
EXTT7=
EXTT8=
EXTT9=
PLAYORDER=
